# xmcd
#
# Track frame offsets: 
#        150
#        10989
#        29708
#        44258
#        55133
#        67000
#        79300
#        92077
#        103350
#        121050
#        134580
#        150263
#        161437
#        176142
#        199543
#        221441
#
# Disc length: 3158 seconds
#
# Revision: 0
# Processed by: cddbd v1.5.2PL0 Copyright (c) Steve Scherf et al.
# Submitted via: ExactAudioCopy v1.0b1
#
DISCID=dd0c5410
DTITLE=Vitalij Petraniuk - Moj Okudzawa
DYEAR=2009
DGENRE=Acid
TTITLE0=Piosenka o piechocie
TTITLE1=Gruzińska piesn
TTITLE2=Piosenka o malarzach
TTITLE3=Piosenka o błekitnym baloniku
TTITLE4=Spotkanie z nadzieja
TTITLE5=Piosenka o nocnej Moskwie
TTITLE6=Katarynka
TTITLE7=Kwietniowy ksiezycowy
TTITLE8=A.S Puszkin
TTITLE9=Ach, Nadia, Nadienka
TTITLE10=Na smolenskim goscincu
TTITLE11=Stara zolnierska piesn
TTITLE12=Pozegnanie z Polska
TTITLE13=Modlitwa Francois Villona
TTITLE14=Szczesliwy los
TTITLE15=Czy to slonko swieci
EXTD=
EXTT0=
EXTT1=
EXTT2=
EXTT3=
EXTT4=
EXTT5=
EXTT6=
EXTT7=
EXTT8=
EXTT9=
EXTT10=
EXTT11=
EXTT12=
EXTT13=
EXTT14=
EXTT15=
PLAYORDER=
